<svg width="564.295" height="564.295" xmlns="http://www.w3.org/2000/svg">

 <g>
  <title>background</title>
  <rect fill="none" id="canvas_background" height="402" width="582" y="-1" x="-1"/>
 </g>
 <g>
  <title>Layer 1</title>
  <g id="svg_1">
   <g id="svg_2">
    <path fill="#e5e5e5" id="svg_3" d="m330.303,192.621c-22.812,0 -41.371,18.559 -41.371,41.371c0,22.812 18.559,41.372 41.371,41.372s41.371,-18.559 41.371,-41.372c0,-22.812 -18.559,-41.371 -41.371,-41.371z"/>
    <path fill="#e5e5e5" id="svg_4" d="m426.613,481.553c-22.812,0 -41.371,18.559 -41.371,41.371s18.559,41.371 41.371,41.371s41.371,-18.559 41.371,-41.371s-18.562,-41.371 -41.371,-41.371z"/>
    <path fill="#e5e5e5" id="svg_5" d="m330.303,96.31c-22.812,0 -41.371,18.559 -41.371,41.372c0,22.812 18.559,41.371 41.371,41.371s41.371,-18.559 41.371,-41.371c0,-22.813 -18.559,-41.372 -41.371,-41.372z"/>
    <path fill="#e5e5e5" id="svg_6" d="m330.303,288.932c-22.812,0 -41.371,18.559 -41.371,41.371s18.559,41.371 41.371,41.371s41.371,-18.559 41.371,-41.371s-18.559,-41.371 -41.371,-41.371z"/>
    <path fill="#e5e5e5" id="svg_7" d="m330.303,385.242c-22.812,0 -41.371,18.559 -41.371,41.371s18.559,41.371 41.371,41.371s41.371,-18.559 41.371,-41.371s-18.559,-41.371 -41.371,-41.371z"/>
    <path fill="#e5e5e5" id="svg_8" d="m426.613,385.242c-22.812,0 -41.371,18.559 -41.371,41.371s18.559,41.371 41.371,41.371s41.371,-18.559 41.371,-41.371s-18.562,-41.371 -41.371,-41.371z"/>
    <path fill="#e5e5e5" id="svg_9" d="m96.311,282.146c0,22.812 18.559,41.371 41.371,41.371c22.812,0 41.372,-18.559 41.372,-41.371c0,-22.812 -18.559,-41.371 -41.372,-41.371c-22.812,0.001 -41.371,18.56 -41.371,41.371z"/>
    <path fill="#e5e5e5" id="svg_10" d="m233.992,192.621c-22.812,0 -41.371,18.559 -41.371,41.371c0,22.812 18.559,41.372 41.371,41.372s41.371,-18.559 41.371,-41.372c0,-22.812 -18.558,-41.371 -41.371,-41.371z"/>
    <path fill="#e5e5e5" id="svg_11" d="m233.992,288.932c-22.812,0 -41.371,18.559 -41.371,41.371s18.559,41.371 41.371,41.371s41.371,-18.559 41.371,-41.371s-18.558,-41.371 -41.371,-41.371z"/>
    <path fill="#e5e5e5" id="svg_12" d="m426.613,288.932c-22.812,0 -41.371,18.559 -41.371,41.371s18.559,41.371 41.371,41.371s41.371,-18.559 41.371,-41.371s-18.562,-41.371 -41.371,-41.371z"/>
    <path fill="#e5e5e5" id="svg_13" d="m426.613,192.621c-22.812,0 -41.371,18.559 -41.371,41.371c0,22.812 18.559,41.372 41.371,41.372s41.371,-18.559 41.371,-41.372c0,-22.812 -18.562,-41.371 -41.371,-41.371z"/>
    <path fill="#e5e5e5" id="svg_14" d="m426.613,96.31c-22.812,0 -41.371,18.559 -41.371,41.372c0,22.812 18.559,41.371 41.371,41.371s41.371,-18.559 41.371,-41.371c0,-22.813 -18.562,-41.372 -41.371,-41.372z"/>
    <path fill="#e5e5e5" id="svg_15" d="m426.613,0c-22.812,0 -41.371,18.559 -41.371,41.371c0,22.812 18.559,41.371 41.371,41.371s41.371,-18.559 41.371,-41.371c0,-22.812 -18.562,-41.371 -41.371,-41.371z"/>
   </g>
  </g>
  <g id="svg_16"/>
  <g id="svg_17"/>
  <g id="svg_18"/>
  <g id="svg_19"/>
  <g id="svg_20"/>
  <g id="svg_21"/>
  <g id="svg_22"/>
  <g id="svg_23"/>
  <g id="svg_24"/>
  <g id="svg_25"/>
  <g id="svg_26"/>
  <g id="svg_27"/>
  <g id="svg_28"/>
  <g id="svg_29"/>
  <g id="svg_30"/>
 </g>
</svg>